<mxfile host="app.diagrams.net" modified="2022-03-26T05:33:16.082Z" agent="5.0 (Windows NT 10.0; Win64; x64) AppleWebKit/537.36 (KHTML, like Gecko) Chrome/99.0.4844.82 Safari/537.36" etag="5yZOmRz8RLN5wshg6yAD" version="17.2.4" type="github">
  <diagram name="Page-1" id="90a13364-a465-7bf4-72fc-28e22215d7a0">
    <mxGraphModel dx="1420" dy="1264" grid="1" gridSize="10" guides="1" tooltips="1" connect="1" arrows="1" fold="1" page="1" pageScale="1.5" pageWidth="1169" pageHeight="826" background="none" math="0" shadow="0">
      <root>
        <mxCell id="0" style=";html=1;" />
        <mxCell id="1" style=";html=1;" parent="0" />
        <mxCell id="gl9paLCeQgBu1lzHXlsU-2" style="edgeStyle=orthogonalEdgeStyle;rounded=0;orthogonalLoop=1;jettySize=auto;html=1;exitX=0.5;exitY=1;exitDx=0;exitDy=0;fontSize=18;endArrow=none;endFill=0;entryX=0.5;entryY=0;entryDx=0;entryDy=0;fillColor=#f5f5f5;strokeColor=#666666;" edge="1" parent="1" source="OXRystneA8D8rx92eWqV-1" target="OXRystneA8D8rx92eWqV-4">
          <mxGeometry relative="1" as="geometry">
            <mxPoint x="1054" y="380" as="targetPoint" />
          </mxGeometry>
        </mxCell>
        <mxCell id="gl9paLCeQgBu1lzHXlsU-3" style="edgeStyle=orthogonalEdgeStyle;rounded=0;orthogonalLoop=1;jettySize=auto;html=1;exitX=0.5;exitY=1;exitDx=0;exitDy=0;entryX=0.5;entryY=0;entryDx=0;entryDy=0;fontSize=18;endArrow=none;endFill=0;fillColor=#f5f5f5;strokeColor=#666666;" edge="1" parent="1" source="OXRystneA8D8rx92eWqV-1" target="OXRystneA8D8rx92eWqV-5">
          <mxGeometry relative="1" as="geometry" />
        </mxCell>
        <mxCell id="gl9paLCeQgBu1lzHXlsU-4" style="edgeStyle=orthogonalEdgeStyle;rounded=0;orthogonalLoop=1;jettySize=auto;html=1;exitX=0.5;exitY=1;exitDx=0;exitDy=0;entryX=0.5;entryY=0;entryDx=0;entryDy=0;fontSize=18;endArrow=none;endFill=0;fillColor=#f5f5f5;strokeColor=#666666;" edge="1" parent="1" source="OXRystneA8D8rx92eWqV-1" target="OXRystneA8D8rx92eWqV-6">
          <mxGeometry relative="1" as="geometry" />
        </mxCell>
        <mxCell id="gl9paLCeQgBu1lzHXlsU-5" style="edgeStyle=orthogonalEdgeStyle;rounded=0;orthogonalLoop=1;jettySize=auto;html=1;exitX=0.5;exitY=1;exitDx=0;exitDy=0;entryX=0.5;entryY=0;entryDx=0;entryDy=0;fontSize=18;endArrow=none;endFill=0;fillColor=#f5f5f5;strokeColor=#666666;" edge="1" parent="1" source="OXRystneA8D8rx92eWqV-1" target="OXRystneA8D8rx92eWqV-2">
          <mxGeometry relative="1" as="geometry" />
        </mxCell>
        <mxCell id="OXRystneA8D8rx92eWqV-1" value="&lt;font style=&quot;font-size: 18px&quot;&gt;MAIN&lt;/font&gt;" style="rounded=0;whiteSpace=wrap;html=1;fillColor=#ffe6cc;strokeColor=#d79b00;" parent="1" vertex="1">
          <mxGeometry x="993.5" y="280" width="120" height="60" as="geometry" />
        </mxCell>
        <mxCell id="gl9paLCeQgBu1lzHXlsU-6" style="edgeStyle=orthogonalEdgeStyle;rounded=0;orthogonalLoop=1;jettySize=auto;html=1;exitX=0.5;exitY=1;exitDx=0;exitDy=0;entryX=0.5;entryY=0;entryDx=0;entryDy=0;fontSize=18;endArrow=none;endFill=0;fillColor=#f5f5f5;strokeColor=#666666;" edge="1" parent="1" source="OXRystneA8D8rx92eWqV-2" target="OXRystneA8D8rx92eWqV-3">
          <mxGeometry relative="1" as="geometry" />
        </mxCell>
        <mxCell id="OXRystneA8D8rx92eWqV-2" value="User Input" style="whiteSpace=wrap;html=1;fontSize=18;fillColor=#ffe6cc;strokeColor=#d79b00;" parent="1" vertex="1">
          <mxGeometry x="530" y="430" width="120" height="60" as="geometry" />
        </mxCell>
        <mxCell id="gl9paLCeQgBu1lzHXlsU-7" style="edgeStyle=orthogonalEdgeStyle;rounded=0;orthogonalLoop=1;jettySize=auto;html=1;exitX=0.5;exitY=1;exitDx=0;exitDy=0;entryX=0.5;entryY=0;entryDx=0;entryDy=0;fontSize=18;endArrow=none;endFill=0;fillColor=#f5f5f5;strokeColor=#666666;" edge="1" parent="1" source="OXRystneA8D8rx92eWqV-3" target="OXRystneA8D8rx92eWqV-13">
          <mxGeometry relative="1" as="geometry" />
        </mxCell>
        <mxCell id="OXRystneA8D8rx92eWqV-3" value="Mode Select" style="whiteSpace=wrap;html=1;fontSize=18;fillColor=#ffe6cc;strokeColor=#d79b00;" parent="1" vertex="1">
          <mxGeometry x="530" y="560" width="120" height="60" as="geometry" />
        </mxCell>
        <mxCell id="gl9paLCeQgBu1lzHXlsU-9" style="edgeStyle=orthogonalEdgeStyle;rounded=0;orthogonalLoop=1;jettySize=auto;html=1;exitX=0.5;exitY=1;exitDx=0;exitDy=0;entryX=0.5;entryY=0;entryDx=0;entryDy=0;fontSize=18;endArrow=none;endFill=0;fillColor=#f5f5f5;strokeColor=#666666;" edge="1" parent="1" source="OXRystneA8D8rx92eWqV-4" target="OXRystneA8D8rx92eWqV-9">
          <mxGeometry relative="1" as="geometry" />
        </mxCell>
        <mxCell id="gl9paLCeQgBu1lzHXlsU-10" style="edgeStyle=orthogonalEdgeStyle;rounded=0;orthogonalLoop=1;jettySize=auto;html=1;exitX=0.5;exitY=1;exitDx=0;exitDy=0;entryX=0.5;entryY=0;entryDx=0;entryDy=0;fontSize=18;endArrow=none;endFill=0;fillColor=#f5f5f5;strokeColor=#666666;" edge="1" parent="1" source="OXRystneA8D8rx92eWqV-4" target="OXRystneA8D8rx92eWqV-14">
          <mxGeometry relative="1" as="geometry" />
        </mxCell>
        <mxCell id="OXRystneA8D8rx92eWqV-4" value="Projection Handler" style="whiteSpace=wrap;html=1;fontSize=18;fillColor=#ffe6cc;strokeColor=#d79b00;" parent="1" vertex="1">
          <mxGeometry x="844.75" y="430" width="120" height="60" as="geometry" />
        </mxCell>
        <mxCell id="gl9paLCeQgBu1lzHXlsU-13" style="edgeStyle=orthogonalEdgeStyle;rounded=0;orthogonalLoop=1;jettySize=auto;html=1;exitX=0.5;exitY=1;exitDx=0;exitDy=0;entryX=0.5;entryY=0;entryDx=0;entryDy=0;fontSize=18;endArrow=none;endFill=0;fillColor=#f5f5f5;strokeColor=#666666;" edge="1" parent="1" source="OXRystneA8D8rx92eWqV-5" target="OXRystneA8D8rx92eWqV-7">
          <mxGeometry relative="1" as="geometry" />
        </mxCell>
        <mxCell id="OXRystneA8D8rx92eWqV-5" value="Logging" style="whiteSpace=wrap;html=1;fontSize=18;fillColor=#ffe6cc;strokeColor=#d79b00;" parent="1" vertex="1">
          <mxGeometry x="1190" y="430" width="120" height="60" as="geometry" />
        </mxCell>
        <mxCell id="gl9paLCeQgBu1lzHXlsU-14" style="edgeStyle=orthogonalEdgeStyle;rounded=0;orthogonalLoop=1;jettySize=auto;html=1;exitX=0.5;exitY=1;exitDx=0;exitDy=0;entryX=0.5;entryY=0;entryDx=0;entryDy=0;fontSize=18;endArrow=none;endFill=0;fillColor=#f5f5f5;strokeColor=#666666;" edge="1" parent="1" source="OXRystneA8D8rx92eWqV-6" target="OXRystneA8D8rx92eWqV-8">
          <mxGeometry relative="1" as="geometry" />
        </mxCell>
        <mxCell id="OXRystneA8D8rx92eWqV-6" value="Battery" style="whiteSpace=wrap;html=1;fontSize=18;fillColor=#ffe6cc;strokeColor=#d79b00;" parent="1" vertex="1">
          <mxGeometry x="1490" y="430" width="120" height="60" as="geometry" />
        </mxCell>
        <mxCell id="OXRystneA8D8rx92eWqV-7" value="UART" style="whiteSpace=wrap;html=1;fontSize=18;fillColor=#ffe6cc;strokeColor=#d79b00;" parent="1" vertex="1">
          <mxGeometry x="1190" y="880" width="120" height="60" as="geometry" />
        </mxCell>
        <mxCell id="OXRystneA8D8rx92eWqV-8" value="ADC" style="whiteSpace=wrap;html=1;fontSize=18;fillColor=#ffe6cc;strokeColor=#d79b00;" parent="1" vertex="1">
          <mxGeometry x="1490" y="880" width="120" height="60" as="geometry" />
        </mxCell>
        <mxCell id="gl9paLCeQgBu1lzHXlsU-11" style="edgeStyle=orthogonalEdgeStyle;rounded=0;orthogonalLoop=1;jettySize=auto;html=1;exitX=0.5;exitY=1;exitDx=0;exitDy=0;entryX=0.5;entryY=0;entryDx=0;entryDy=0;fontSize=18;endArrow=none;endFill=0;fillColor=#f5f5f5;strokeColor=#666666;" edge="1" parent="1" source="OXRystneA8D8rx92eWqV-9" target="OXRystneA8D8rx92eWqV-12">
          <mxGeometry relative="1" as="geometry" />
        </mxCell>
        <mxCell id="OXRystneA8D8rx92eWqV-9" value="Calibration" style="whiteSpace=wrap;html=1;fontSize=18;fillColor=#ffe6cc;strokeColor=#d79b00;" parent="1" vertex="1">
          <mxGeometry x="780" y="560" width="120" height="60" as="geometry" />
        </mxCell>
        <mxCell id="OXRystneA8D8rx92eWqV-10" value="GPIO" style="whiteSpace=wrap;html=1;fontSize=18;fillColor=#ffe6cc;strokeColor=#d79b00;" parent="1" vertex="1">
          <mxGeometry x="530" y="880" width="120" height="60" as="geometry" />
        </mxCell>
        <mxCell id="OXRystneA8D8rx92eWqV-11" value="SPI" style="whiteSpace=wrap;html=1;fontSize=18;fillColor=#ffe6cc;strokeColor=#d79b00;" parent="1" vertex="1">
          <mxGeometry x="844.75" y="880" width="120" height="60" as="geometry" />
        </mxCell>
        <mxCell id="gl9paLCeQgBu1lzHXlsU-12" style="edgeStyle=orthogonalEdgeStyle;rounded=0;orthogonalLoop=1;jettySize=auto;html=1;exitX=0.5;exitY=1;exitDx=0;exitDy=0;entryX=0.5;entryY=0;entryDx=0;entryDy=0;fontSize=18;endArrow=none;endFill=0;fillColor=#f5f5f5;strokeColor=#666666;" edge="1" parent="1" source="OXRystneA8D8rx92eWqV-12" target="OXRystneA8D8rx92eWqV-11">
          <mxGeometry relative="1" as="geometry" />
        </mxCell>
        <mxCell id="OXRystneA8D8rx92eWqV-12" value="Motor Controller" style="whiteSpace=wrap;html=1;fontSize=18;fillColor=#ffe6cc;strokeColor=#d79b00;" parent="1" vertex="1">
          <mxGeometry x="780" y="670" width="120" height="60" as="geometry" />
        </mxCell>
        <mxCell id="gl9paLCeQgBu1lzHXlsU-8" style="edgeStyle=orthogonalEdgeStyle;rounded=0;orthogonalLoop=1;jettySize=auto;html=1;exitX=0.5;exitY=1;exitDx=0;exitDy=0;entryX=0.5;entryY=0;entryDx=0;entryDy=0;fontSize=18;endArrow=none;endFill=0;fillColor=#f5f5f5;strokeColor=#666666;" edge="1" parent="1" source="OXRystneA8D8rx92eWqV-13" target="OXRystneA8D8rx92eWqV-10">
          <mxGeometry relative="1" as="geometry" />
        </mxCell>
        <mxCell id="OXRystneA8D8rx92eWqV-13" value="LED Display" style="whiteSpace=wrap;html=1;fontSize=18;fillColor=#ffe6cc;strokeColor=#d79b00;" parent="1" vertex="1">
          <mxGeometry x="530" y="720" width="120" height="60" as="geometry" />
        </mxCell>
        <mxCell id="OXRystneA8D8rx92eWqV-14" value="Flash Data Interpreter" style="whiteSpace=wrap;html=1;fontSize=18;fillColor=#ffe6cc;strokeColor=#d79b00;" parent="1" vertex="1">
          <mxGeometry x="930" y="560" width="120" height="60" as="geometry" />
        </mxCell>
      </root>
    </mxGraphModel>
  </diagram>
</mxfile>
